<svg width="31" height="32" viewBox="0 0 31 32" fill="none" xmlns="http://www.w3.org/2000/svg">
<g clip-path="url(#clip0_5313_6833)">
<mask id="mask0_5313_6833" style="mask-type:luminance" maskUnits="userSpaceOnUse" x="-1" y="17" width="16" height="15">
<path d="M14.5808 17.0388H-0.050293V31.9851H14.5808V17.0388Z" fill="white"/>
</mask>
<g mask="url(#mask0_5313_6833)">
<path d="M14.568 16.9648C9.70497 16.9704 4.83604 16.9648 -0.0264145 16.9648V23.5696C-0.0264145 25.5676 -0.0328999 27.5728 -0.0264145 29.5708C-0.0264145 30.3509 -0.0264145 31.1311 -0.0264145 31.9057C0.91073 31.9123 1.8549 31.9178 2.79313 31.9057C3.20225 30.6115 3.65569 29.3362 4.10318 28.0548C4.37665 27.2995 4.56905 26.5194 4.8917 25.7829C5.00358 25.4975 5.31434 25.4086 5.53809 25.2507C5.82993 24.4192 6.17798 23.6137 6.3639 22.7503C6.40713 22.1225 6.50009 21.2789 5.86722 20.9112C5.22787 20.5617 4.52582 20.6567 3.84215 20.8157C3.31466 20.9355 2.81745 21.1575 2.37644 21.4749L2.35752 21.4882L2.35212 21.4942C2.33915 21.5075 2.32023 21.5202 2.30186 21.5263C2.28997 21.5323 2.27754 21.539 2.26456 21.5456C2.07865 21.6151 1.83004 21.513 1.64358 21.5263C2.46399 20.0483 4.0967 19.2682 5.67428 18.9883C6.59359 18.7989 7.5129 19.1092 8.36357 19.4454C9.06562 19.6547 9.26451 20.549 9.95953 20.7644C10.4816 20.9361 11.0091 20.7014 11.4933 20.5369C11.9592 20.6893 12.4191 20.8538 12.8785 21.0316C12.7293 22.0215 12.3883 22.9672 11.8598 23.8108C11.4252 23.6518 10.9842 23.4934 10.5562 23.3283C10.2768 22.5101 9.35746 21.7868 8.52571 22.2815C7.40805 23.0622 7.25889 24.5341 6.79896 25.7332C7.53776 26.4371 6.76167 27.4077 6.58764 28.2011C6.16501 29.4444 5.73049 30.6883 5.30839 31.931C8.38897 31.9377 11.4696 31.9377 14.5436 31.931C14.5436 29.8187 14.5372 27.7125 14.5501 25.6002C14.5615 22.7122 14.568 19.8385 14.568 16.9648Z" fill="#F5AF23"/>
</g>
<mask id="mask1_5313_6833" style="mask-type:luminance" maskUnits="userSpaceOnUse" x="17" y="17" width="15" height="12">
<path d="M31.2671 17.0388H17.3726V28.4562H31.2671V17.0388Z" fill="white"/>
</mask>
<g mask="url(#mask1_5313_6833)">
<path d="M31.1753 16.9897C29.7907 16.9268 28.3996 16.9897 27.0144 16.9583C23.8468 16.9842 20.6797 16.9516 17.5127 16.9704C20.7678 19.902 24.0527 22.7878 27.3062 25.7134C27.4873 25.5925 27.6673 25.4721 27.8407 25.3512C28.8465 26.1319 29.7599 27.0323 30.7284 27.8572C30.8094 27.9212 30.9705 28.0598 31.0516 28.1305L31.2061 28.2569C31.1872 24.5015 31.2499 20.7396 31.1753 16.9897Z" fill="#F02E2C"/>
</g>
<mask id="mask2_5313_6833" style="mask-type:luminance" maskUnits="userSpaceOnUse" x="16" y="18" width="10" height="14">
<path d="M25.8808 18.2799H16.6353V31.9846H25.8808V18.2799Z" fill="white"/>
</mask>
<g mask="url(#mask2_5313_6833)">
<path d="M24.9831 30.8395C24.7967 30.4077 24.5675 30.0019 24.3005 29.6216C21.7226 25.8524 19.2014 22.0529 16.6245 18.2909C16.6126 22.8523 16.6056 27.4071 16.6245 31.9685C19.6797 31.8608 22.7473 31.937 25.8095 31.9249C25.4733 31.6069 25.1507 31.2707 24.9831 30.8395Z" fill="#F02E2C"/>
</g>
<path d="M29.2496 29.3676C29.5852 29.228 29.536 28.8343 29.6101 28.5362C29.088 28.2 28.5913 27.2542 27.8898 27.6606C27.2251 28.2 26.7468 28.9552 26.1501 29.5703C25.7102 30.3057 26.4857 30.8583 26.9948 31.2381C27.3796 31.5368 27.9579 31.2762 28.0633 30.8075C28.2622 30.1792 28.6913 29.6906 29.2496 29.3676Z" fill="#F02E2C"/>
<mask id="mask3_5313_6833" style="mask-type:luminance" maskUnits="userSpaceOnUse" x="28" y="29" width="4" height="3">
<path d="M31.2668 29.3042H28.3716V31.9846H31.2668V29.3042Z" fill="white"/>
</mask>
<g mask="url(#mask3_5313_6833)">
<path d="M30.5606 29.4688C29.9078 30.3124 29.2068 31.1184 28.5112 31.9245C29.4111 31.9051 30.3061 31.9118 31.2059 31.9178C31.2005 31.1825 31.2005 30.4399 31.2059 29.6979C30.9952 29.6278 30.7779 29.5516 30.5606 29.4688Z" fill="#F02E2C"/>
</g>
<mask id="mask4_5313_6833" style="mask-type:luminance" maskUnits="userSpaceOnUse" x="16" y="-1" width="16" height="16">
<path d="M31.1433 -0.0457764H16.5122V14.9006H31.1433V-0.0457764Z" fill="white"/>
</mask>
<g mask="url(#mask4_5313_6833)">
<path d="M20.2702 14.9572C20.4697 13.683 20.8231 12.4325 20.9415 11.1445C20.2394 10.3831 19.4569 9.64717 19.1093 8.62579C18.1095 6.24681 19.1774 3.21415 21.4322 2.02825C21.8608 1.71687 22.4445 2.29381 22.2888 2.76364C22.097 4.22283 21.7981 5.66932 21.5743 7.12906C22.2456 7.7187 22.9282 8.30282 23.5994 8.88638C24.4258 8.56893 25.2575 8.2708 26.0833 7.95389C26.3498 6.47593 26.5498 4.9908 26.847 3.52554C26.8783 3.03031 27.5236 2.7515 27.8593 3.13797C28.7975 4.12732 29.2504 5.54897 29.2131 6.91264C29.1266 9.18451 27.4928 11.2079 25.3753 11.8495C25.1392 12.8769 24.9716 13.9171 24.7727 14.9572C26.8778 14.9572 28.9834 14.9258 31.082 14.9832C31.0755 14.165 31.082 13.3528 31.082 12.5341C31.082 10.2882 31.0755 8.04223 31.082 5.78968C31.0885 3.86176 31.082 1.93329 31.082 0.00427246C26.2195 0.00979341 21.3565 0.00979306 16.4941 0.0164182C16.4941 4.99687 16.4876 9.9834 16.4941 14.9638C17.7555 14.9572 19.0099 14.9572 20.2702 14.9572Z" fill="#0177B8"/>
</g>
<mask id="mask5_5313_6833" style="mask-type:luminance" maskUnits="userSpaceOnUse" x="5" y="-1" width="10" height="14">
<path d="M14.1652 -0.221436H5.85303V12.7584H14.1652V-0.221436Z" fill="white"/>
</mask>
<g mask="url(#mask5_5313_6833)">
<path d="M9.10899 5.82294C9.43164 5.74647 9.74889 5.66335 10.078 5.61847C10.3823 5.94374 10.6179 6.32609 10.8855 6.68848C10.8919 7.09687 10.8855 7.5036 10.8547 7.91753C11.0346 8.22951 11.3389 8.40129 11.668 8.50934C12.7797 9.60485 13.364 11.1204 14.152 12.4508C14.2265 12.4835 14.3698 12.5467 14.4443 12.5849C14.4006 8.34421 14.4314 4.11014 14.4254 -0.130575C11.5875 -0.130575 8.74905 -0.143874 5.91113 -0.125034C6.35755 0.403601 6.59372 1.05359 6.64993 1.74791C7.52492 3.05897 8.26426 4.47864 9.10899 5.82294Z" fill="#179D2E"/>
</g>
<mask id="mask6_5313_6833" style="mask-type:luminance" maskUnits="userSpaceOnUse" x="-1" y="-1" width="14" height="16">
<path d="M12.1834 -0.0457764H-0.050293V14.9006H12.1834V-0.0457764Z" fill="white"/>
</mask>
<g mask="url(#mask6_5313_6833)">
<path d="M7.16543 14.8619C7.09085 14.6913 7.00979 14.5257 6.92277 14.3606C6.56283 13.6633 6.13425 12.9969 5.74296 12.3245C5.40086 11.6901 5.33925 10.9542 5.1155 10.269C4.89175 10.2376 4.668 10.205 4.45074 10.1735C4.28969 9.8246 4.12809 9.48175 3.96704 9.13337C4.14701 8.93628 4.32698 8.73973 4.50695 8.54263C3.33957 6.64618 2.12842 4.76133 1.13453 2.7633C1.17182 2.59159 1.20911 2.42707 1.23991 2.26199L4.15944 6.64618C4.17133 6.67765 4.18484 6.7036 4.20321 6.73452C4.20321 6.72789 4.20321 6.71575 4.20321 6.70305L4.97336 7.85748C4.99227 7.88895 5.01065 7.9149 5.02957 7.94582L5.25872 8.29474V8.28922C5.27061 8.30854 5.28412 8.32731 5.29601 8.33946C5.4014 8.20641 5.61866 7.93919 5.72513 7.80669C6.30882 8.22462 6.45798 8.9164 6.38935 9.60762C6.68119 9.84889 6.98601 10.0775 7.30866 10.2801C7.91126 11.1375 8.37713 12.0887 8.9419 12.971C9.15268 13.3442 9.43263 13.6937 9.51911 14.1254C9.46993 14.2452 9.39534 14.4291 9.32724 14.6008C9.28347 14.7029 9.24618 14.7979 9.22186 14.8674C9.21537 14.8741 9.21537 14.8868 9.21537 14.8934C10.159 14.8674 11.1032 14.8801 12.0473 14.8674C11.3648 13.6175 10.6189 12.3996 9.88067 11.1877C9.48938 10.5915 9.56991 9.84282 9.50127 9.16374C9.2224 9.06215 8.93596 8.95449 8.65654 8.85291C8.25931 8.4151 7.84316 7.93312 7.7248 7.33023C7.93666 7.06357 8.18473 6.8361 8.43334 6.60754C7.42053 5.27533 6.81846 3.65107 5.75648 2.36303C4.92418 1.79823 4.83068 0.756981 4.36535 -0.0479736C2.91856 0.0083401 1.46474 -0.0286503 0.0174102 -0.0231293L-0.0144776 0.00999613V12.9721L-0.0263672 14.8619H7.16543Z" fill="#179D2E"/>
</g>
</g>
<defs>
<clipPath id="clip0_5313_6833">
<rect width="31" height="32" fill="white"/>
</clipPath>
</defs>
</svg>
