<svg aria-hidden="true" style="position: absolute; width: 0; height: 0; overflow: hidden;" version="1.1" xmlns="http://www.w3.org/2000/svg" xmlns:xlink="http://www.w3.org/1999/xlink">
<defs>
<symbol id="icon-logo" viewBox="0 0 32 32">
<path fill="#f5af23" style="fill: var(--color1, #f5af23)" d="M14.568 16.965c-4.863 0.006-9.732 0-14.594 0v6.605c0 1.998-0.006 4.003 0 6.001 0 0.78 0 1.56 0 2.335 0.937 0.007 1.881 0.012 2.82 0 0.409-1.294 0.863-2.57 1.31-3.851 0.273-0.755 0.466-1.535 0.789-2.272 0.112-0.285 0.423-0.374 0.646-0.532 0.292-0.831 0.64-1.637 0.826-2.5 0.043-0.628 0.136-1.471-0.497-1.839-0.639-0.349-1.341-0.255-2.025-0.096-0.527 0.12-1.025 0.342-1.466 0.659l-0.019 0.013-0.005 0.006c-0.013 0.013-0.032 0.026-0.050 0.032-0.012 0.006-0.024 0.013-0.037 0.019-0.186 0.070-0.435-0.033-0.621-0.019 0.82-1.478 2.453-2.258 4.031-2.538 0.919-0.189 1.839 0.121 2.689 0.457 0.702 0.209 0.901 1.104 1.596 1.319 0.522 0.172 1.050-0.063 1.534-0.227 0.466 0.152 0.926 0.317 1.385 0.495-0.149 0.99-0.49 1.936-1.019 2.779-0.435-0.159-0.876-0.317-1.304-0.483-0.279-0.818-1.199-1.541-2.030-1.047-1.118 0.781-1.267 2.253-1.727 3.452 0.739 0.704-0.037 1.674-0.211 2.468-0.423 1.243-0.857 2.487-1.279 3.73 3.081 0.007 6.161 0.007 9.235 0 0-2.112-0.006-4.218 0.007-6.331 0.011-2.888 0.018-5.762 0.018-8.635z"></path>
<path fill="#f02e2c" style="fill: var(--color2, #f02e2c)" d="M31.175 16.99c-1.385-0.063-2.776 0-4.161-0.031-3.168 0.026-6.335-0.007-9.502 0.012 3.255 2.932 6.54 5.817 9.793 8.743 0.181-0.121 0.361-0.241 0.535-0.362 1.006 0.781 1.919 1.681 2.888 2.506 0.081 0.064 0.242 0.203 0.323 0.273l0.154 0.126c-0.019-3.755 0.044-7.517-0.031-11.267z"></path>
<path fill="#f02e2c" style="fill: var(--color2, #f02e2c)" d="M24.983 30.84c-0.186-0.432-0.416-0.838-0.683-1.218-2.578-3.769-5.099-7.569-7.676-11.331-0.012 4.561-0.019 9.116 0 13.678 3.055-0.108 6.123-0.032 9.185-0.044-0.336-0.318-0.659-0.654-0.826-1.085z"></path>
<path fill="#f02e2c" style="fill: var(--color2, #f02e2c)" d="M29.25 29.368c0.336-0.14 0.286-0.533 0.36-0.831-0.522-0.336-1.019-1.282-1.72-0.876-0.665 0.539-1.143 1.295-1.74 1.91-0.44 0.735 0.336 1.288 0.845 1.668 0.385 0.299 0.963 0.038 1.069-0.431 0.199-0.628 0.628-1.117 1.186-1.44z"></path>
<path fill="#f02e2c" style="fill: var(--color2, #f02e2c)" d="M30.561 29.469c-0.653 0.844-1.354 1.65-2.049 2.456 0.9-0.019 1.795-0.013 2.695-0.007-0.005-0.735-0.005-1.478 0-2.22-0.211-0.070-0.428-0.146-0.645-0.229z"></path>
<path fill="#0177b8" style="fill: var(--color3, #0177b8)" d="M20.27 14.957c0.2-1.274 0.553-2.525 0.671-3.813-0.702-0.761-1.485-1.497-1.832-2.519-1-2.379 0.068-5.412 2.323-6.598 0.429-0.311 1.012 0.266 0.857 0.735-0.192 1.459-0.491 2.906-0.715 4.365 0.671 0.59 1.354 1.174 2.025 1.757 0.826-0.317 1.658-0.616 2.484-0.933 0.267-1.478 0.466-2.963 0.764-4.428 0.031-0.495 0.677-0.774 1.012-0.388 0.938 0.989 1.391 2.411 1.354 3.775-0.087 2.272-1.72 4.295-3.838 4.937-0.236 1.027-0.404 2.068-0.603 3.108 2.105 0 4.211-0.031 6.309 0.026-0.006-0.818 0-1.63 0-2.449 0-2.246-0.006-4.492 0-6.744 0.006-1.928 0-3.856 0-5.785-4.863 0.006-9.726 0.006-14.588 0.012 0 4.98-0.006 9.967 0 14.947 1.261-0.007 2.516-0.007 3.776-0.007z"></path>
<path fill="#179d2e" style="fill: var(--color4, #179d2e)" d="M9.109 5.823c0.323-0.076 0.64-0.16 0.969-0.204 0.304 0.325 0.54 0.708 0.807 1.070 0.006 0.408 0 0.815-0.031 1.229 0.18 0.312 0.484 0.484 0.813 0.592 1.112 1.095 1.696 2.611 2.484 3.941 0.075 0.033 0.218 0.096 0.292 0.134-0.044-4.241-0.013-8.475-0.019-12.715-2.838 0-5.676-0.013-8.514 0.006 0.446 0.529 0.683 1.179 0.739 1.873 0.875 1.311 1.614 2.731 2.459 4.075z"></path>
<path fill="#179d2e" style="fill: var(--color4, #179d2e)" d="M7.165 14.862c-0.075-0.171-0.156-0.336-0.243-0.501-0.36-0.697-0.789-1.364-1.18-2.036-0.342-0.634-0.404-1.37-0.627-2.056-0.224-0.031-0.447-0.064-0.665-0.095-0.161-0.349-0.323-0.692-0.484-1.040 0.18-0.197 0.36-0.394 0.54-0.591-1.167-1.896-2.379-3.781-3.372-5.779 0.037-0.172 0.075-0.336 0.105-0.501l2.92 4.384c0.012 0.031 0.025 0.057 0.044 0.088 0-0.007 0-0.019 0-0.031l0.77 1.154c0.019 0.031 0.037 0.057 0.056 0.088l0.229 0.349v-0.006c0.012 0.019 0.025 0.038 0.037 0.050 0.105-0.133 0.323-0.4 0.429-0.533 0.584 0.418 0.733 1.11 0.664 1.801 0.292 0.241 0.597 0.47 0.919 0.672 0.603 0.857 1.068 1.809 1.633 2.691 0.211 0.373 0.491 0.723 0.577 1.154-0.049 0.12-0.124 0.304-0.192 0.475-0.044 0.102-0.081 0.197-0.105 0.267-0.007 0.007-0.007 0.019-0.007 0.026 0.944-0.026 1.888-0.013 2.832-0.026-0.682-1.25-1.428-2.468-2.167-3.68-0.391-0.596-0.311-1.345-0.379-2.024-0.279-0.102-0.565-0.209-0.845-0.311-0.397-0.438-0.813-0.92-0.932-1.523 0.212-0.267 0.46-0.494 0.709-0.723-1.013-1.332-1.615-2.956-2.677-4.245-0.832-0.565-0.926-1.606-1.391-2.411-1.447 0.056-2.901 0.019-4.348 0.025l-0.032 0.033v12.962l-0.012 1.89h7.192z"></path>
</symbol>
<symbol id="icon-youtube" viewBox="0 0 32 32">
<path d="M26.227 10.853c-0.119-0.457-0.356-0.874-0.689-1.209s-0.748-0.576-1.204-0.697c-2.765-0.326-5.549-0.473-8.333-0.44-2.784-0.033-5.568 0.114-8.333 0.44-0.456 0.122-0.872 0.362-1.204 0.697s-0.57 0.752-0.689 1.209c-0.303 1.699-0.45 3.421-0.44 5.147-0.011 1.734 0.137 3.466 0.44 5.173 0.125 0.45 0.365 0.859 0.697 1.186s0.745 0.562 1.196 0.681c2.765 0.326 5.549 0.473 8.333 0.44 2.784 0.033 5.568-0.114 8.333-0.44 0.451-0.118 0.864-0.353 1.196-0.681s0.573-0.737 0.697-1.186c0.303-1.707 0.451-3.439 0.44-5.173 0.010-1.725-0.137-3.448-0.44-5.147zM13.813 19.187v-6.347l5.587 3.16-5.587 3.173v0.013z"></path>
</symbol>
<symbol id="icon-outdoor" viewBox="0 0 30 32">
<path d="M25.839 15.555h-6.188c-0.28 0-0.556-0.030-0.831-0.087-0.273-0.059-0.539-0.144-0.798-0.257-0.258-0.115-0.503-0.254-0.735-0.42-0.233-0.164-0.446-0.353-0.644-0.562-0.198-0.211-0.374-0.44-0.53-0.687s-0.286-0.508-0.393-0.782c-0.107-0.274-0.187-0.557-0.242-0.849-0.055-0.291-0.082-0.585-0.082-0.883v-6.585c0-0.296 0.027-0.59 0.082-0.883 0.055-0.291 0.135-0.573 0.242-0.849 0.107-0.274 0.237-0.535 0.393-0.782s0.332-0.475 0.53-0.685c0.198-0.211 0.412-0.398 0.644-0.563s0.478-0.304 0.735-0.418c0.259-0.114 0.525-0.201 0.798-0.257 0.275-0.059 0.552-0.087 0.831-0.087h6.188c0.28 0 0.556 0.028 0.83 0.087 0.275 0.057 0.541 0.144 0.798 0.257 0.259 0.114 0.504 0.252 0.735 0.418 0.233 0.165 0.448 0.353 0.646 0.563 0.196 0.211 0.374 0.438 0.528 0.685 0.156 0.247 0.288 0.508 0.394 0.782 0.107 0.276 0.187 0.558 0.242 0.849 0.053 0.293 0.082 0.587 0.082 0.883v6.585c0 0.298-0.028 0.592-0.082 0.883-0.055 0.293-0.135 0.575-0.242 0.849s-0.239 0.535-0.394 0.782c-0.154 0.247-0.332 0.476-0.528 0.687-0.198 0.209-0.413 0.398-0.646 0.562-0.231 0.165-0.476 0.304-0.735 0.42-0.258 0.114-0.523 0.199-0.798 0.257-0.273 0.057-0.55 0.087-0.83 0.087zM19.651 2.387c-0.127 0-0.253 0.013-0.377 0.038-0.126 0.027-0.247 0.065-0.363 0.117-0.118 0.052-0.229 0.115-0.335 0.191s-0.204 0.16-0.294 0.256c-0.090 0.095-0.17 0.199-0.24 0.313-0.071 0.112-0.13 0.231-0.178 0.354-0.049 0.125-0.086 0.254-0.112 0.386-0.024 0.134-0.036 0.267-0.036 0.401v6.585c0 0.135 0.013 0.269 0.036 0.401 0.025 0.132 0.063 0.261 0.112 0.386 0.047 0.125 0.107 0.244 0.178 0.356s0.151 0.216 0.24 0.311c0.090 0.095 0.189 0.181 0.294 0.256s0.217 0.139 0.335 0.191c0.116 0.052 0.237 0.090 0.363 0.117 0.124 0.027 0.25 0.040 0.377 0.040h6.188c0.127 0 0.253-0.013 0.377-0.040s0.245-0.065 0.363-0.117c0.118-0.052 0.229-0.115 0.335-0.191s0.203-0.161 0.292-0.256c0.091-0.095 0.171-0.199 0.24-0.311 0.071-0.112 0.13-0.231 0.179-0.356s0.085-0.254 0.11-0.386 0.038-0.266 0.038-0.401v-6.585c0-0.134-0.013-0.267-0.038-0.401-0.025-0.132-0.061-0.261-0.11-0.386-0.049-0.124-0.108-0.242-0.179-0.354-0.069-0.114-0.149-0.217-0.24-0.313-0.090-0.095-0.187-0.181-0.292-0.256s-0.217-0.139-0.335-0.191-0.239-0.090-0.363-0.117c-0.124-0.025-0.25-0.038-0.377-0.038h-6.188z"></path>
<path d="M8.819 15.555h-4.642c-0.278 0-0.555-0.030-0.83-0.087-0.273-0.059-0.539-0.144-0.798-0.257-0.258-0.115-0.503-0.254-0.735-0.42-0.233-0.164-0.446-0.353-0.644-0.562-0.198-0.211-0.374-0.44-0.53-0.687s-0.286-0.508-0.393-0.782-0.189-0.557-0.242-0.849c-0.055-0.291-0.082-0.585-0.082-0.883v-4.938c0-0.298 0.027-0.592 0.082-0.883 0.053-0.293 0.135-0.575 0.242-0.849s0.237-0.535 0.393-0.782c0.156-0.247 0.332-0.476 0.53-0.687 0.198-0.209 0.412-0.398 0.644-0.562 0.233-0.166 0.478-0.304 0.735-0.42 0.259-0.114 0.525-0.199 0.798-0.257 0.275-0.057 0.552-0.087 0.83-0.087h4.642c0.28 0 0.556 0.030 0.831 0.087 0.273 0.058 0.539 0.144 0.797 0.257 0.259 0.115 0.504 0.254 0.737 0.42 0.231 0.164 0.446 0.353 0.644 0.562 0.198 0.211 0.374 0.44 0.53 0.687 0.154 0.247 0.286 0.508 0.393 0.782s0.187 0.557 0.242 0.849c0.055 0.291 0.082 0.585 0.082 0.883v4.938c0 0.298-0.027 0.592-0.082 0.883-0.055 0.293-0.135 0.575-0.242 0.849s-0.239 0.535-0.393 0.782c-0.156 0.247-0.332 0.476-0.53 0.687-0.198 0.209-0.413 0.398-0.644 0.562-0.233 0.165-0.478 0.304-0.737 0.42-0.258 0.114-0.523 0.199-0.797 0.257-0.275 0.057-0.552 0.087-0.831 0.087zM4.177 4.032c-0.126 0-0.251 0.013-0.377 0.040-0.124 0.027-0.245 0.065-0.363 0.117-0.116 0.052-0.228 0.115-0.333 0.191-0.107 0.075-0.204 0.16-0.294 0.256s-0.17 0.199-0.24 0.311c-0.071 0.112-0.13 0.231-0.179 0.356s-0.085 0.254-0.11 0.386c-0.024 0.132-0.036 0.266-0.036 0.401v4.938c0 0.135 0.013 0.269 0.036 0.401 0.025 0.132 0.061 0.261 0.11 0.386s0.108 0.244 0.179 0.356 0.151 0.216 0.24 0.311c0.090 0.095 0.187 0.181 0.294 0.256 0.105 0.075 0.217 0.139 0.333 0.191 0.118 0.052 0.239 0.090 0.363 0.117 0.126 0.027 0.251 0.040 0.377 0.040h4.642c0.127 0 0.253-0.013 0.377-0.040 0.126-0.027 0.247-0.065 0.363-0.117 0.118-0.052 0.229-0.115 0.335-0.191s0.203-0.161 0.294-0.256c0.090-0.095 0.17-0.199 0.24-0.311s0.129-0.231 0.178-0.356c0.049-0.125 0.086-0.254 0.11-0.386 0.025-0.132 0.038-0.266 0.038-0.401v-4.938c0-0.135-0.013-0.269-0.038-0.401-0.024-0.132-0.061-0.261-0.11-0.386s-0.107-0.244-0.178-0.356c-0.071-0.112-0.151-0.216-0.24-0.311-0.091-0.095-0.189-0.181-0.294-0.256s-0.217-0.139-0.335-0.191c-0.116-0.052-0.237-0.090-0.363-0.117-0.124-0.027-0.25-0.040-0.377-0.040h-4.642z"></path>
<path d="M24.291 32.015h-4.64c-0.28 0-0.556-0.030-0.831-0.087-0.273-0.058-0.539-0.144-0.798-0.257-0.258-0.114-0.503-0.254-0.735-0.42-0.233-0.164-0.446-0.353-0.644-0.562-0.198-0.211-0.374-0.44-0.53-0.687-0.156-0.246-0.286-0.506-0.393-0.782-0.107-0.274-0.187-0.557-0.242-0.849-0.055-0.291-0.082-0.585-0.082-0.883v-4.938c0-0.298 0.027-0.592 0.082-0.883s0.135-0.575 0.242-0.849c0.107-0.274 0.237-0.535 0.393-0.782s0.332-0.476 0.53-0.685c0.198-0.211 0.412-0.398 0.644-0.563s0.478-0.304 0.735-0.418c0.259-0.114 0.525-0.201 0.798-0.257 0.275-0.058 0.552-0.087 0.831-0.087h4.64c0.28 0 0.556 0.028 0.831 0.087 0.273 0.057 0.539 0.144 0.798 0.257 0.258 0.114 0.503 0.252 0.735 0.418s0.446 0.353 0.644 0.563c0.198 0.209 0.374 0.438 0.53 0.685s0.286 0.508 0.393 0.782c0.107 0.274 0.187 0.558 0.242 0.849s0.082 0.585 0.082 0.883v4.938c0 0.298-0.027 0.592-0.082 0.883-0.055 0.293-0.135 0.575-0.242 0.849-0.107 0.276-0.237 0.537-0.393 0.782-0.156 0.247-0.332 0.476-0.53 0.687-0.198 0.209-0.412 0.398-0.644 0.562-0.233 0.166-0.478 0.306-0.735 0.42-0.259 0.114-0.525 0.199-0.798 0.257-0.275 0.057-0.552 0.087-0.831 0.087zM19.651 20.492c-0.127 0-0.253 0.013-0.377 0.040-0.126 0.027-0.247 0.065-0.363 0.117-0.118 0.052-0.229 0.115-0.335 0.191s-0.204 0.16-0.294 0.256c-0.090 0.095-0.17 0.199-0.24 0.311-0.071 0.114-0.13 0.232-0.178 0.356-0.049 0.125-0.086 0.254-0.112 0.386-0.024 0.132-0.036 0.266-0.036 0.401v4.938c0 0.135 0.013 0.269 0.036 0.401 0.025 0.132 0.063 0.261 0.112 0.386 0.047 0.125 0.107 0.244 0.178 0.356s0.151 0.216 0.24 0.311c0.090 0.097 0.189 0.182 0.294 0.256 0.105 0.075 0.217 0.139 0.335 0.191 0.116 0.052 0.237 0.090 0.363 0.117 0.124 0.027 0.25 0.040 0.377 0.040h4.64c0.127 0 0.253-0.013 0.379-0.040 0.124-0.027 0.245-0.065 0.361-0.117 0.118-0.052 0.229-0.115 0.335-0.191 0.105-0.074 0.204-0.159 0.294-0.256 0.090-0.095 0.17-0.199 0.24-0.311s0.13-0.231 0.179-0.356c0.047-0.125 0.085-0.254 0.11-0.386 0.024-0.132 0.036-0.266 0.036-0.401v-4.938c0-0.135-0.013-0.269-0.036-0.401-0.025-0.132-0.063-0.261-0.11-0.386-0.049-0.124-0.108-0.242-0.179-0.356-0.071-0.112-0.151-0.216-0.24-0.311s-0.189-0.181-0.294-0.256c-0.105-0.075-0.217-0.139-0.335-0.191-0.116-0.052-0.237-0.090-0.361-0.117-0.126-0.027-0.251-0.040-0.379-0.040h-4.64z"></path>
<path d="M8.819 32.015h-4.642c-0.278 0-0.555-0.030-0.83-0.087-0.273-0.058-0.539-0.144-0.798-0.257-0.258-0.114-0.503-0.254-0.735-0.42-0.233-0.164-0.446-0.353-0.644-0.562-0.198-0.211-0.374-0.44-0.53-0.687-0.156-0.246-0.286-0.506-0.393-0.782-0.107-0.274-0.189-0.557-0.242-0.849-0.055-0.291-0.082-0.585-0.082-0.883v-4.938c0-0.298 0.027-0.592 0.082-0.883 0.053-0.291 0.135-0.575 0.242-0.849s0.237-0.535 0.393-0.782 0.332-0.476 0.53-0.685c0.198-0.211 0.412-0.398 0.644-0.563s0.478-0.304 0.735-0.418c0.259-0.114 0.525-0.201 0.798-0.257 0.275-0.058 0.552-0.087 0.83-0.087h4.642c0.28 0 0.556 0.028 0.831 0.087 0.273 0.057 0.539 0.144 0.797 0.257 0.259 0.114 0.504 0.252 0.737 0.418 0.231 0.166 0.446 0.353 0.644 0.563 0.198 0.209 0.374 0.438 0.53 0.685 0.154 0.247 0.286 0.508 0.393 0.782s0.187 0.558 0.242 0.849c0.055 0.291 0.082 0.585 0.082 0.883v4.938c0 0.298-0.027 0.592-0.082 0.883-0.055 0.293-0.135 0.575-0.242 0.849-0.107 0.276-0.239 0.537-0.393 0.782-0.156 0.247-0.332 0.476-0.53 0.687-0.198 0.209-0.413 0.398-0.644 0.562-0.233 0.166-0.478 0.306-0.737 0.42-0.258 0.114-0.523 0.199-0.797 0.257-0.275 0.057-0.552 0.087-0.831 0.087zM4.177 20.492c-0.126 0-0.251 0.013-0.377 0.040-0.124 0.027-0.245 0.065-0.363 0.117-0.116 0.052-0.228 0.115-0.333 0.191-0.107 0.075-0.204 0.16-0.294 0.256s-0.17 0.199-0.24 0.311c-0.071 0.114-0.13 0.232-0.179 0.356-0.049 0.125-0.085 0.254-0.11 0.386-0.024 0.132-0.036 0.266-0.036 0.401v4.938c0 0.135 0.013 0.269 0.036 0.401 0.025 0.132 0.061 0.261 0.11 0.386s0.108 0.244 0.179 0.356c0.071 0.112 0.151 0.216 0.24 0.311 0.090 0.097 0.187 0.182 0.294 0.256 0.105 0.075 0.217 0.139 0.333 0.191 0.118 0.052 0.239 0.090 0.363 0.117 0.126 0.027 0.251 0.040 0.377 0.040h4.642c0.127 0 0.253-0.013 0.377-0.040 0.126-0.027 0.247-0.065 0.363-0.117 0.118-0.052 0.229-0.115 0.335-0.191 0.105-0.074 0.203-0.159 0.294-0.256 0.090-0.095 0.17-0.199 0.24-0.311s0.129-0.231 0.178-0.356c0.049-0.125 0.086-0.254 0.11-0.386 0.025-0.132 0.038-0.266 0.038-0.401v-4.938c0-0.135-0.013-0.269-0.038-0.401-0.024-0.132-0.061-0.261-0.11-0.386-0.049-0.124-0.107-0.242-0.178-0.356-0.071-0.112-0.151-0.216-0.24-0.311-0.091-0.095-0.189-0.181-0.294-0.256s-0.217-0.139-0.335-0.191c-0.116-0.052-0.237-0.090-0.363-0.117-0.124-0.027-0.25-0.040-0.377-0.040h-4.642z"></path>
</symbol>
<symbol id="icon-door" viewBox="0 0 35 32">
<path d="M31.68 28.444v-28.444h-28.16v28.444h-3.52v3.556h35.2v-3.556h-3.52zM14.080 28.444v-24.889h7.040v24.889h-7.040z"></path>
</symbol>
<symbol id="icon-facebook" viewBox="0 0 32 32">
<path d="M19.915 17.042l0.456-2.897h-2.809v-1.883c0-0.792 0.392-1.566 1.646-1.566h1.295v-2.467c-0.754-0.12-1.516-0.185-2.28-0.195-2.312 0-3.821 1.39-3.821 3.902v2.209h-2.562v2.897h2.562v7.007h3.16v-7.007h2.353z"></path>
</symbol>
<symbol id="icon-home" viewBox="0 0 31 32">
<path d="M15.407-0.235l-15.529 14.143h4.659v12.572h21.741v-12.572h4.659l-15.529-14.143zM15.407 8.408c3.634 0 6.926 1.461 9.318 3.834l-1.864 1.854c-1.988-1.977-4.667-3.078-7.454-3.064-2.92 0-5.56 1.163-7.454 3.064l-1.864-1.854c2.488-2.467 5.835-3.844 9.318-3.834zM15.407 13.641c2.174 0 4.146 0.88 5.591 2.31l-1.864 1.839c-0.995-0.985-2.335-1.533-3.727-1.524-1.46 0-2.78 0.581-3.727 1.524l-1.864-1.839c1.492-1.483 3.5-2.312 5.591-2.31zM15.407 18.889c1.46 0 2.64 1.163 2.64 2.609s-1.18 2.624-2.64 2.624-2.64-1.179-2.64-2.624c0-1.446 1.18-2.609 2.64-2.609z"></path>
</symbol>
<symbol id="icon-instagram" viewBox="0 0 32 32">
<path d="M13.337 16.041c0-1.474 1.194-2.669 2.668-2.669s2.668 1.195 2.668 2.669c0 1.474-1.195 2.669-2.668 2.669s-2.668-1.195-2.668-2.669zM11.894 16.041c0 2.271 1.84 4.112 4.11 4.112s4.11-1.841 4.11-4.112c0-2.271-1.84-4.112-4.11-4.112s-4.11 1.841-4.11 4.112zM19.317 11.766c-0 0.19 0.056 0.376 0.162 0.534s0.255 0.281 0.431 0.354c0.175 0.073 0.369 0.092 0.555 0.055s0.358-0.128 0.492-0.263 0.226-0.305 0.263-0.492c0.037-0.186 0.018-0.38-0.054-0.555s-0.196-0.326-0.354-0.431-0.344-0.162-0.534-0.162c-0.255 0-0.499 0.101-0.679 0.281s-0.281 0.424-0.282 0.679zM12.771 22.559c-0.78-0.036-1.205-0.166-1.487-0.275-0.374-0.146-0.64-0.319-0.921-0.599s-0.454-0.547-0.599-0.92c-0.11-0.282-0.24-0.706-0.275-1.487-0.039-0.844-0.047-1.098-0.047-3.236s0.008-2.391 0.047-3.236c0.036-0.781 0.167-1.204 0.275-1.487 0.145-0.374 0.319-0.641 0.599-0.921s0.546-0.454 0.921-0.599c0.282-0.11 0.706-0.24 1.487-0.275 0.844-0.039 1.097-0.047 3.234-0.047s2.39 0.008 3.235 0.047c0.78 0.036 1.204 0.167 1.486 0.275 0.374 0.145 0.64 0.319 0.921 0.599s0.453 0.547 0.599 0.921c0.11 0.282 0.24 0.706 0.275 1.487 0.039 0.845 0.047 1.098 0.047 3.236s-0.008 2.391-0.047 3.236c-0.036 0.781-0.166 1.205-0.275 1.487-0.146 0.374-0.319 0.641-0.599 0.92s-0.547 0.453-0.921 0.599c-0.282 0.11-0.706 0.24-1.486 0.275-0.844 0.039-1.097 0.047-3.235 0.047s-2.39-0.008-3.234-0.047zM12.705 8.082c-0.852 0.039-1.434 0.174-1.943 0.372-0.527 0.204-0.972 0.479-1.418 0.924s-0.719 0.892-0.923 1.418c-0.198 0.509-0.333 1.091-0.372 1.944-0.039 0.854-0.048 1.127-0.048 3.301s0.009 2.447 0.048 3.301c0.039 0.852 0.174 1.435 0.372 1.944 0.204 0.527 0.478 0.974 0.923 1.418s0.891 0.719 1.418 0.924c0.509 0.198 1.091 0.333 1.943 0.372 0.854 0.039 1.126 0.048 3.3 0.048s2.447-0.009 3.3-0.048c0.852-0.039 1.434-0.174 1.943-0.372 0.526-0.205 0.972-0.479 1.418-0.924s0.718-0.892 0.923-1.418c0.198-0.509 0.334-1.091 0.372-1.944 0.039-0.854 0.048-1.127 0.048-3.301s-0.009-2.447-0.048-3.301c-0.039-0.852-0.174-1.435-0.372-1.944-0.205-0.527-0.479-0.973-0.923-1.418s-0.892-0.719-1.417-0.924c-0.51-0.198-1.091-0.334-1.943-0.372-0.854-0.039-1.126-0.048-3.3-0.048s-2.447 0.009-3.301 0.048z"></path>
</symbol>
<symbol id="icon-instalation" viewBox="0 0 32 32">
<path d="M6.351 19.080h3.152l4.728 4.83h-3.152l-4.728-4.83zM3.199 2.981h1.576v-1.61c0-0.427 0.166-0.836 0.462-1.138s0.696-0.472 1.114-0.472h6.304c0.418 0 0.819 0.17 1.114 0.472s0.462 0.711 0.462 1.138v1.61h3.152v-1.61c0-0.427 0.166-0.836 0.462-1.138s0.696-0.472 1.114-0.472h6.304c0.418 0 0.819 0.17 1.114 0.472s0.462 0.711 0.462 1.138v1.61h1.576c0.836 0 1.638 0.339 2.229 0.943s0.923 1.423 0.923 2.277v20.929c0 0.854-0.332 1.673-0.923 2.277s-1.393 0.943-2.229 0.943v1.61h-4.728v-1.61h-15.761v1.61h-4.728v-1.61c-0.836 0-1.638-0.339-2.229-0.943s-0.923-1.423-0.923-2.277v-20.929c0-0.854 0.332-1.673 0.923-2.277s1.393-0.943 2.229-0.943zM25.265 7.811c0.418 0 0.819 0.17 1.114 0.472s0.462 0.711 0.462 1.138-0.166 0.836-0.462 1.138c-0.296 0.302-0.696 0.472-1.114 0.472s-0.819-0.17-1.114-0.472c-0.296-0.302-0.462-0.711-0.462-1.138s0.166-0.836 0.462-1.138c0.296-0.302 0.696-0.471 1.114-0.471zM18.96 7.811c0.418 0 0.819 0.17 1.114 0.472s0.462 0.711 0.462 1.138-0.166 0.836-0.462 1.138c-0.296 0.302-0.696 0.472-1.114 0.472s-0.819-0.17-1.114-0.472c-0.296-0.302-0.462-0.711-0.462-1.138s0.166-0.836 0.462-1.138c0.296-0.302 0.696-0.471 1.114-0.471zM28.417 6.201h-25.218v6.44h25.218v-6.44zM3.199 27.129h25.218v-11.269h-25.218v11.269zM6.351 7.811c0.418 0 0.819 0.17 1.114 0.472s0.462 0.711 0.462 1.138-0.166 0.836-0.462 1.138c-0.296 0.302-0.696 0.472-1.114 0.472s-0.819-0.17-1.114-0.472c-0.296-0.302-0.462-0.711-0.462-1.138s0.166-0.836 0.462-1.138c0.296-0.302 0.696-0.471 1.114-0.471zM17.384 19.080h3.152l4.728 4.83h-3.152l-4.728-4.83z"></path>
</symbol>
<symbol id="icon-mail" viewBox="0 0 32 32">
<path d="M2.667 26.667v-21.333h26.667v21.333h-26.667zM16 17.333l-10.667-6.667v13.333h21.333v-13.333l-10.667 6.667zM16 14.667l10.667-6.667h-21.333l10.667 6.667zM5.333 10.667v-0z"></path>
</symbol>
<symbol id="icon-paint" viewBox="0 0 38 32">
<path d="M27.941 0.889h-14.993c-1.503 0-2.726 1.253-2.726 2.794v4.191c0 1.541 1.223 2.794 2.726 2.794h14.993c1.503 0 2.726-1.253 2.726-2.794v-4.191c0-1.541-1.223-2.794-2.726-2.794z"></path>
<path d="M25.889 19.216v-3.399c0-1.874-1.495-3.399-3.333-3.399h-11.667v-10.196c-1.838 0-3.333 1.524-3.333 3.399v6.797c0 1.874 1.495 3.399 3.333 3.399h11.667v3.399c-0.442 0-0.866 0.179-1.178 0.498s-0.488 0.751-0.488 1.202v8.497c0 0.451 0.176 0.883 0.488 1.202s0.736 0.498 1.178 0.498h3.333c0.442 0 0.866-0.179 1.178-0.498s0.488-0.751 0.488-1.202v-8.497c0-0.451-0.176-0.883-0.488-1.202s-0.736-0.498-1.178-0.498z"></path>
</symbol>
<symbol id="icon-picture" viewBox="0 0 38 32">
<path d="M0 0v32.234h37.714v-32.234h-37.714zM2.893 3.013h31.927v26.209h-31.927v-26.209zM9.475 6.796c-0.9 0-1.658 0.314-2.272 0.943s-0.921 1.405-0.921 2.327c0 0.88 0.307 1.634 0.921 2.263s1.372 0.943 2.272 0.943c0.86 0 1.596-0.314 2.21-0.943s0.921-1.383 0.921-2.263c0-0.922-0.307-1.698-0.921-2.327s-1.35-0.943-2.21-0.943zM23.042 8.39l-7.244 11.254-3.847-3.27-5.67 7.543v2.202h25.151v-8.845l-8.39-8.885z"></path>
</symbol>
<symbol id="icon-plug" viewBox="0 0 36 32">
<path d="M31.322 19.441c0-0.922-0.82-1.676-1.822-1.676h-3.645v3.352h3.645c1.002 0 1.822-0.754 1.822-1.676zM29.5 24.469h-3.645v3.352h3.645c1.002 0 1.822-0.754 1.822-1.676s-0.82-1.676-1.822-1.676zM14.921 19.441h-3.645v6.704h3.645c0 1.844 1.64 3.352 3.645 3.352h5.467v-13.408h-5.467c-2.005 0-3.645 1.508-3.645 3.352z"></path>
<path d="M4.156 17.217c0-1.951 1.468-3.548 3.261-3.548h2.446c3.147 0 5.708-2.785 5.708-6.209s-2.56-6.209-5.708-6.209h-5.708c-0.897 0-1.631 0.798-1.631 1.774s0.734 1.774 1.631 1.774h5.708c1.354 0 2.446 1.189 2.446 2.661s-1.093 2.661-2.446 2.661h-2.446c-3.604 0-6.523 3.175-6.523 7.096s2.919 7.096 6.523 7.096h3.261v-3.548h-3.261c-1.794 0-3.261-1.597-3.261-3.548z"></path>
</symbol>
<symbol id="icon-sofa" viewBox="0 0 33 32">
<path d="M17.247 7.781c0-1.551 1.11-2.794 2.494-2.794h4.364c1.371 0 2.494 1.257 2.494 2.794v3.018c-1.446 0.573-2.494 2.11-2.494 3.926v2.836h-6.857v-9.78zM9.143 14.711v2.85h6.857v-9.78c0-1.551-1.11-2.794-2.494-2.794h-4.364c-1.371 0-2.494 1.257-2.494 2.794v3.004c1.446 0.573 2.494 2.124 2.494 3.926zM27.42 12.015c-1.222 0.224-2.070 1.523-2.070 2.92v4.024h-17.455v-4.192c0-0.741-0.263-1.452-0.73-1.976s-1.102-0.818-1.763-0.818-1.296 0.294-1.763 0.818c-0.468 0.524-0.73 1.235-0.73 1.976v6.986c0 1.537 1.122 2.794 2.493 2.794v2.794h2.494v-2.794h17.455v2.794h2.494v-2.794c1.371 0 2.494-1.257 2.494-2.794v-6.986c0-1.691-1.359-3.046-2.917-2.752z"></path>
</symbol>
<symbol id="icon-tap" viewBox="0 0 30 32">
<path d="M13.94 0c-0.269 0-0.538 0.269-1.076 0.807v2.151h-3.264c-1.041-1.076-1.041-1.076-2.117 0s-1.076 1.076 0 2.151 1.076 1.076 2.069 0h3.311v2.151h2.152v-2.151h3.275c1.063 1.076 1.063 1.076 2.139 0s1.076-1.076 0-2.151-1.076-1.076-2.186 0h-3.228v-2.151c-0.538-0.538-0.807-0.807-1.076-0.807zM-0.049 5.244v17.21h2.152v-17.21h-2.152zM4.255 8.471l-1.076-1.076v12.908l1.076-1.076v-10.756zM13.94 8.336c-2.152 0-3.252 0-3.311 2.151h-5.297v6.454h4.346c1.034 1.076 2.11 2.151 4.262 2.151s3.228-1.076 4.304-2.151c4.304 0 4.304 0 4.304 2.151v2.151h6.456v-4.303c0-4.303-2.152-6.454-6.456-6.454h-5.38c0.024-2.151-1.076-2.151-3.228-2.151zM21.472 22.319v1.076h8.608v-1.076h-8.608zM25.776 24.471c0 0-2.611 3.473-2.152 5.513 0.284 1.261 0.859 2.017 2.152 2.017s1.868-0.756 2.152-2.017c0.459-2.040-2.152-5.513-2.152-5.513z"></path>
</symbol>
<symbol id="icon-telephone" viewBox="0 0 32 32">
<path d="M25.333 16c0-2.6-0.905-4.805-2.716-6.616s-4.016-2.716-6.617-2.717v-2.667c1.667 0 3.228 0.317 4.684 0.951s2.723 1.489 3.8 2.565c1.077 1.076 1.933 2.343 2.567 3.8s0.95 3.018 0.949 4.684h-2.667zM20 16c0-1.111-0.389-2.056-1.167-2.833s-1.722-1.167-2.833-1.167v-2.667c1.844 0 3.417 0.65 4.717 1.951s1.95 2.872 1.949 4.716h-2.667zM26.6 28c-2.778 0-5.528-0.6-8.249-1.8s-5.194-2.911-7.417-5.133c-2.223-2.222-3.934-4.689-5.133-7.4s-1.799-5.467-1.8-8.267v-1.4h7.867l1.233 6.7-3.8 3.833c0.489 0.867 1.033 1.689 1.633 2.467s1.244 1.5 1.933 2.167c0.644 0.644 1.35 1.261 2.117 1.851s1.595 1.139 2.483 1.649l3.867-3.867 6.667 1.367v7.833h-1.4zM8.033 12l2.2-2.2-0.567-3.133h-2.967c0.111 1 0.278 1.939 0.5 2.817s0.5 1.717 0.833 2.516zM19.967 23.933c0.889 0.378 1.784 0.678 2.684 0.9s1.795 0.367 2.683 0.433v-2.933l-3.133-0.633-2.233 2.233z"></path>
</symbol>
<symbol id="icon-triangle" viewBox="0 0 32 32">
<path d="M16 20l-6.667-6.667h13.333l-6.667 6.667z"></path>
</symbol>
</defs>
</svg>
